<?xml version="1.0" encoding="UTF-8" standalone="no"?>
<svg
   width="300"
   height="121.13503"
   version="1.1"
   id="svg196"
   sodipodi:docname="mapa-sitio4.svg"
   inkscape:version="1.3 (0e150ed6c4, 2023-07-21)"
   xmlns:inkscape="http://www.inkscape.org/namespaces/inkscape"
   xmlns:sodipodi="http://sodipodi.sourceforge.net/DTD/sodipodi-0.dtd"
   xmlns:xlink="http://www.w3.org/1999/xlink"
   xmlns="http://www.w3.org/2000/svg"
   xmlns:svg="http://www.w3.org/2000/svg"
   xmlns:lucid="lucid">
  <defs
     id="defs197" />
  <sodipodi:namedview
     id="namedview196"
     pagecolor="#ffffff"
     bordercolor="#000000"
     borderopacity="0.25"
     inkscape:showpageshadow="2"
     inkscape:pageopacity="0.0"
     inkscape:pagecheckerboard="0"
     inkscape:deskcolor="#d1d1d1"
     inkscape:zoom="0.1146153"
     inkscape:cx="946.64499"
     inkscape:cy="702.34951"
     inkscape:window-width="1366"
     inkscape:window-height="705"
     inkscape:window-x="-8"
     inkscape:window-y="-8"
     inkscape:window-maximized="1"
     inkscape:current-layer="svg196" />
  <g
     transform="matrix(0.08680279,0,0,0.08680279,7.1811948,-20.214634)"
     lucid:page-tab-id="0_0"
     id="g196">
    <path
       d="m 1058.9,240.38 a 6,6 0 0 1 6,-6 H 1463 a 6,6 0 0 1 6,6 v 178.7 a 6,6 0 0 1 -6,6 h -398.1 a 6,6 0 0 1 -6,-6 z"
       stroke="#5e5e5e"
       stroke-width="3"
       fill="#ff9090"
       id="path1" />
    <use
       xlink:href="#a"
       transform="translate(1191.8621,333.89)"
       id="use1" />
    <a
       xlink:href="http://localhost:5000/home"
       target="_blank"
       transform="translate(1070.9115,246.37612)"
       id="a2">
      <path
         class="lucid-link lucid-hotspot lucid-overlay-hotspot"
         fill-opacity="0"
         d="m 120.95,62.63 h 145.1 v 37.33 h -145.1 z"
         id="path2" />
    </a>
    <a
       xlink:href="http://localhost:5000/home"
       target="_blank"
       id="a4">
      <path
         d="m -81.23,591.1 a 6,6 0 0 1 6,-6 h 398.07 a 6,6 0 0 1 6,6 v 178.7 a 6,6 0 0 1 -6,6 H -75.23 a 6,6 0 0 1 -6,-6 z"
         stroke="#5e5e5e"
         stroke-width="3"
         fill="#a7a6ff"
         id="path3" />
      <use
         xlink:href="#b"
         transform="translate(88.064319,684.6038)"
         id="use3" />
      <path
         class="lucid-link lucid-hotspot lucid-overlay-hotspot"
         d="m -81.23,591.1 a 6,6 0 0 1 6,-6 h 398.07 a 6,6 0 0 1 6,6 v 178.7 a 6,6 0 0 1 -6,6 H -75.23 a 6,6 0 0 1 -6,-6 z"
         fill="none"
         id="path4" />
    </a>
    <a
       xlink:href="http://localhost:5000/products"
       target="_blank"
       id="a6">
      <path
         d="m 488.84,591.1 a 6,6 0 0 1 6,-6 H 892.9 a 6,6 0 0 1 6,6 v 178.7 a 6,6 0 0 1 -6,6 H 494.85 a 6,6 0 0 1 -6,-6 z"
         stroke="#5e5e5e"
         stroke-width="3"
         fill="#a7a6ff"
         id="path5" />
      <use
         xlink:href="#c"
         transform="translate(624.38604,684.6038)"
         id="use5" />
      <path
         class="lucid-link lucid-hotspot lucid-overlay-hotspot"
         d="m 488.84,591.1 a 6,6 0 0 1 6,-6 H 892.9 a 6,6 0 0 1 6,6 v 178.7 a 6,6 0 0 1 -6,6 H 494.85 a 6,6 0 0 1 -6,-6 z"
         fill="none"
         id="path6" />
    </a>
    <a
       xlink:href="http://localhost:5000/ordenes"
       target="_blank"
       id="a8">
      <path
         d="m 1058.9,591.1 a 6,6 0 0 1 6,-6 H 1463 a 6,6 0 0 1 6,6 v 178.7 a 6,6 0 0 1 -6,6 h -398.1 a 6,6 0 0 1 -6,-6 z"
         stroke="#5e5e5e"
         stroke-width="3"
         fill="#a7a6ff"
         id="path7" />
      <use
         xlink:href="#d"
         transform="translate(1204.825,684.6038)"
         id="use7" />
      <path
         class="lucid-link lucid-hotspot lucid-overlay-hotspot"
         d="m 1058.9,591.1 a 6,6 0 0 1 6,-6 H 1463 a 6,6 0 0 1 6,6 v 178.7 a 6,6 0 0 1 -6,6 h -398.1 a 6,6 0 0 1 -6,-6 z"
         fill="none"
         id="path8" />
    </a>
    <a
       xlink:href="http://localhost:5000/contacto"
       target="_blank"
       id="a10">
      <path
         d="m 1628.98,598.5 a 6,6 0 0 1 6,-6 h 398.07 a 6,6 0 0 1 6,6 v 178.7 a 6,6 0 0 1 -6,6 h -398.07 a 6,6 0 0 1 -6,-6 z"
         stroke="#5e5e5e"
         stroke-width="3"
         fill="#a7a6ff"
         id="path9" />
      <use
         xlink:href="#e"
         transform="translate(1772.3011,692.00922)"
         id="use9" />
      <path
         class="lucid-link lucid-hotspot lucid-overlay-hotspot"
         d="m 1628.98,598.5 a 6,6 0 0 1 6,-6 h 398.07 a 6,6 0 0 1 6,6 v 178.7 a 6,6 0 0 1 -6,6 h -398.07 a 6,6 0 0 1 -6,-6 z"
         fill="none"
         id="path10" />
    </a>
    <a
       xlink:href="http://localhost:5000/compras"
       target="_blank"
       id="a12">
      <path
         d="m 2199.05,598.5 a 6,6 0 0 1 6,-6 h 398.07 a 6,6 0 0 1 6,6 v 178.7 a 6,6 0 0 1 -6,6 h -398.07 a 6,6 0 0 1 -6,-6 z"
         stroke="#5e5e5e"
         stroke-width="3"
         fill="#a7a6ff"
         id="path11" />
      <use
         xlink:href="#f"
         transform="translate(2341.5919,692.00922)"
         id="use11" />
      <path
         class="lucid-link lucid-hotspot lucid-overlay-hotspot"
         d="m 2199.05,598.5 a 6,6 0 0 1 6,-6 h 398.07 a 6,6 0 0 1 6,6 v 178.7 a 6,6 0 0 1 -6,6 h -398.07 a 6,6 0 0 1 -6,-6 z"
         fill="none"
         id="path12" />
    </a>
    <path
       d="M 1263.95,428.1 V 572.48"
       stroke="#3a414a"
       stroke-width="3"
       fill="none"
       id="path13" />
    <path
       d="m 1265.45,428.13 h -3 v -1.54 h 3 z"
       stroke="#3a414a"
       stroke-width="0.05"
       fill="#3a414a"
       id="path14" />
    <path
       d="m 1263.95,580.64 -7.64,-12.9 h 15.28 z"
       stroke="#3a414a"
       stroke-width="3"
       fill="#3a414a"
       id="path15" />
    <path
       d="M 1265.45,474.02 H 1810 a 24,24 0 0 1 24,24 v 81.87 M 1265.48,474.02 h -1.53"
       stroke="#3a414a"
       stroke-width="3"
       fill="none"
       id="path16" />
    <path
       d="m 1834,588.05 -7.62,-12.9 h 15.27 z"
       stroke="#3a414a"
       stroke-width="3"
       fill="#3a414a"
       id="path17" />
    <path
       d="m 1265.45,474.02 h 1114.63 a 24,24 0 0 1 24,24 v 81.87 M 1265.48,474.02 h -1.53"
       stroke="#3a414a"
       stroke-width="3"
       fill="none"
       id="path18" />
    <path
       d="m 2404.08,588.05 -7.63,-12.9 h 15.27 z"
       stroke="#3a414a"
       stroke-width="3"
       fill="#3a414a"
       id="path19" />
    <path
       d="M 1262.45,474.02 H 717.88 a 24,24 0 0 0 -24,24 v 74.46 m 568.52,-98.46 h 1.55"
       stroke="#3a414a"
       stroke-width="3"
       fill="none"
       id="path20" />
    <path
       d="m 693.88,580.64 -7.64,-12.9 h 15.27 z"
       stroke="#3a414a"
       stroke-width="3"
       fill="#3a414a"
       id="path21" />
    <path
       d="M 1262.45,474.02 H 147.8 a 24,24 0 0 0 -24,24 v 74.46 m 1138.6,-98.46 h 1.55"
       stroke="#3a414a"
       stroke-width="3"
       fill="none"
       id="path22" />
    <path
       d="m 123.8,580.64 -7.63,-12.9 h 15.27 z"
       stroke="#3a414a"
       stroke-width="3"
       fill="#3a414a"
       id="path23" />
    <a
       xlink:href="http://localhost:5000/login"
       target="_blank"
       id="a25">
      <path
         d="m 2712.9,598.5 a 6,6 0 0 1 6,-6 h 398.07 a 6,6 0 0 1 6,6 v 178.7 a 6,6 0 0 1 -6,6 H 2718.9 a 6,6 0 0 1 -6,-6 z"
         stroke="#5e5e5e"
         stroke-width="3"
         fill="#a7a6ff"
         id="path24" />
      <use
         xlink:href="#g"
         transform="translate(2827.8339,692.00922)"
         id="use24" />
      <use
         xlink:href="#h"
         transform="translate(2919.1796,692.00922)"
         id="use25" />
      <path
         class="lucid-link lucid-hotspot lucid-overlay-hotspot"
         d="m 2712.9,598.5 a 6,6 0 0 1 6,-6 h 398.07 a 6,6 0 0 1 6,6 v 178.7 a 6,6 0 0 1 -6,6 H 2718.9 a 6,6 0 0 1 -6,-6 z"
         fill="none"
         id="path25" />
    </a>
    <g
       transform="translate(2724.9018,604.49533)"
       id="g27">
      <a
         xlink:href="http://localhost:5000/login"
         target="_blank"
         id="a26">
        <path
           class="lucid-link lucid-hotspot lucid-overlay-hotspot"
           fill-opacity="0"
           d="m 102.93,62.63 h 91.35 v 37.33 h -91.35 z"
           id="path26" />
      </a>
      <a
         xlink:href="http://localhost:5000/login"
         target="_blank"
         id="a27">
        <path
           class="lucid-link lucid-hotspot lucid-overlay-hotspot"
           fill-opacity="0"
           d="m 194.28,62.63 h 89.8 v 37.33 h -89.8 z"
           id="path27" />
      </a>
    </g>
    <path
       d="m 1593.48,474.02 h 1300.46 a 24,24 0 0 1 24,24 v 81.87 M 1593.52,474.02 h -1.54"
       stroke="#3a414a"
       stroke-width="3"
       fill="none"
       id="path28" />
    <path
       d="m 2917.94,588.05 -7.64,-12.9 h 15.27 z"
       stroke="#3a414a"
       stroke-width="3"
       fill="#3a414a"
       id="path29" />
    <a
       xlink:href="http://localhost:5000/ordenar"
       target="_blank"
       id="a31">
      <path
         d="m 1314.56,940.3 a 6,6 0 0 1 6,-6 h 398.07 a 6,6 0 0 1 6,6 v 178.72 a 6,6 0 0 1 -6,6 h -398.07 a 6,6 0 0 1 -6,-6 z"
         stroke="#5e5e5e"
         stroke-width="3"
         fill="#b5d6ff"
         id="path30" />
      <use
         xlink:href="#i"
         transform="translate(1409.6552,1033.8176)"
         id="use30" />
      <use
         xlink:href="#j"
         transform="translate(1544.1244,1033.8176)"
         id="use31" />
      <path
         class="lucid-link lucid-hotspot lucid-overlay-hotspot"
         d="m 1314.56,940.3 a 6,6 0 0 1 6,-6 h 398.07 a 6,6 0 0 1 6,6 v 178.72 a 6,6 0 0 1 -6,6 h -398.07 a 6,6 0 0 1 -6,-6 z"
         fill="none"
         id="path31" />
    </a>
    <path
       d="m 1262.3,777.3 v 228.36 a 24,24 0 0 0 24,24 h 15.65 M 1262.3,777.34 v -1.54"
       stroke="#3a414a"
       stroke-width="3"
       fill="none"
       id="path32" />
    <path
       d="m 1310.1,1029.66 -12.9,7.64 v -15.27 z"
       stroke="#3a414a"
       stroke-width="3"
       fill="#3a414a"
       id="path33" />
    <path
       d="m 1314.56,1196.16 a 6,6 0 0 1 6,-6 h 398.07 a 6,6 0 0 1 6,6 v 178.72 a 6,6 0 0 1 -6,6 h -398.07 a 6,6 0 0 1 -6,-6 z"
       stroke="#5e5e5e"
       stroke-width="3"
       fill="#b5d6ff"
       id="path34" />
    <use
       xlink:href="#k"
       transform="translate(1432.0379,1289.6757)"
       id="use34" />
    <use
       xlink:href="#j"
       transform="translate(1521.7417,1289.6757)"
       id="use35" />
    <path
       d="m 1262.3,777.3 v 517.74 a 24,24 0 0 0 24,24 h 15.65 m -39.65,-541.7 v -1.54"
       stroke="#3a414a"
       stroke-width="3"
       fill="none"
       id="path35" />
    <path
       d="m 1310.1,1319.04 -12.9,7.64 v -15.27 z"
       stroke="#3a414a"
       stroke-width="3"
       fill="#3a414a"
       id="path36" />
    <path
       d="m 1262.3,777.3 v 517.74 a 24,24 0 0 0 24,24 h 15.65 m -39.65,-541.7 v -1.54"
       stroke="#3a414a"
       stroke-width="3"
       fill="none"
       id="path37" />
    <path
       d="m 1310.1,1319.04 -12.9,7.64 v -15.27 z"
       stroke="#3a414a"
       stroke-width="3"
       fill="#3a414a"
       id="path38" />
    <a
       xlink:href="http://localhost:5000/products"
       target="_blank"
       id="a40">
      <path
         d="m 746.12,941.8 a 6,6 0 0 1 6,-6 h 398.07 a 6,6 0 0 1 6,6 v 178.72 a 6,6 0 0 1 -6,6 H 752.1 a 6,6 0 0 1 -6,-6 z"
         stroke="#5e5e5e"
         stroke-width="3"
         fill="#b5d6ff"
         id="path39" />
      <use
         xlink:href="#l"
         transform="translate(863.55946,1035.3176)"
         id="use39" />
      <use
         xlink:href="#m"
         transform="translate(918.78168,1035.3176)"
         id="use40" />
      <path
         class="lucid-link lucid-hotspot lucid-overlay-hotspot"
         d="m 746.12,941.8 a 6,6 0 0 1 6,-6 h 398.07 a 6,6 0 0 1 6,6 v 178.72 a 6,6 0 0 1 -6,6 H 752.1 a 6,6 0 0 1 -6,-6 z"
         fill="none"
         id="path40" />
    </a>
    <path
       d="m 693.88,778.8 v 228.36 a 24,24 0 0 0 24,24 h 15.63 M 693.88,778.84 v -1.54"
       stroke="#3a414a"
       stroke-width="3"
       fill="none"
       id="path41" />
    <path
       d="m 741.67,1031.16 -12.9,7.64 v -15.27 z"
       stroke="#3a414a"
       stroke-width="3"
       fill="#3a414a"
       id="path42" />
    <a
       xlink:href="http://localhost:5000/gestion-producto"
       target="_blank"
       id="a44">
      <path
         d="m 746.12,1197.66 a 6,6 0 0 1 6,-6 h 398.07 a 6,6 0 0 1 6,6 v 178.72 a 6,6 0 0 1 -6,6 H 752.1 a 6,6 0 0 1 -6,-6 z"
         stroke="#5e5e5e"
         stroke-width="3"
         fill="#b5d6ff"
         id="path43" />
      <use
         xlink:href="#i"
         transform="translate(823.936,1291.1756)"
         id="use43" />
      <use
         xlink:href="#m"
         transform="translate(958.40514,1291.1756)"
         id="use44" />
      <path
         class="lucid-link lucid-hotspot lucid-overlay-hotspot"
         d="m 746.12,1197.66 a 6,6 0 0 1 6,-6 h 398.07 a 6,6 0 0 1 6,6 v 178.72 a 6,6 0 0 1 -6,6 H 752.1 a 6,6 0 0 1 -6,-6 z"
         fill="none"
         id="path44" />
    </a>
    <path
       d="m 746.12,1442.18 a 6,6 0 0 1 6,-6 h 398.07 a 6,6 0 0 1 6,6 v 178.72 a 6,6 0 0 1 -6,6 H 752.1 a 6,6 0 0 1 -6,-6 z"
       stroke="#5e5e5e"
       stroke-width="3"
       fill="#b5d6ff"
       id="path45" />
    <use
       xlink:href="#k"
       transform="translate(846.31872,1535.6985)"
       id="use45" />
    <use
       xlink:href="#m"
       transform="translate(936.02242,1535.6985)"
       id="use46" />
    <path
       d="m 693.88,778.8 v 517.74 a 24,24 0 0 0 24,24 h 15.63 m -39.63,-541.7 v -1.54"
       stroke="#3a414a"
       stroke-width="3"
       fill="none"
       id="path46" />
    <path
       d="m 741.67,1320.54 -12.9,7.64 v -15.27 z"
       stroke="#3a414a"
       stroke-width="3"
       fill="#3a414a"
       id="path47" />
    <path
       d="m 693.88,778.8 v 517.74 a 24,24 0 0 0 24,24 h 15.63 m -39.63,-541.7 v -1.54"
       stroke="#3a414a"
       stroke-width="3"
       fill="none"
       id="path48" />
    <path
       d="m 741.67,1320.54 -12.9,7.64 v -15.27 z"
       stroke="#3a414a"
       stroke-width="3"
       fill="#3a414a"
       id="path49" />
    <path
       d="m 693.88,778.8 v 728.74 a 24,24 0 0 0 24,24 h 15.63 m -39.63,-752.7 v -1.54"
       stroke="#3a414a"
       stroke-width="3"
       fill="none"
       id="path50" />
    <path
       d="m 741.67,1531.54 -12.9,7.64 v -15.27 z"
       stroke="#3a414a"
       stroke-width="3"
       fill="#3a414a"
       id="path51" />
    <a
       xlink:href="http://localhost:5000/placeholder"
       target="_blank"
       id="a53">
      <path
         d="m 203.8,941.8 a 6,6 0 0 1 6,-6 h 398.1 a 6,6 0 0 1 6,6 v 178.72 a 6,6 0 0 1 -6,6 H 209.8 a 6,6 0 0 1 -6,-6 z"
         stroke="#5e5e5e"
         stroke-width="3"
         fill="#b5d6ff"
         id="path52" />
      <use
         xlink:href="#n"
         transform="translate(293.67888,1035.3176)"
         id="use52" />
      <use
         xlink:href="#o"
         transform="translate(426.59246,1035.3176)"
         id="use53" />
      <path
         class="lucid-link lucid-hotspot lucid-overlay-hotspot"
         d="m 203.8,941.8 a 6,6 0 0 1 6,-6 h 398.1 a 6,6 0 0 1 6,6 v 178.72 a 6,6 0 0 1 -6,6 H 209.8 a 6,6 0 0 1 -6,-6 z"
         fill="none"
         id="path53" />
    </a>
    <path
       d="m 123.8,778.8 v 228.36 a 24,24 0 0 0 24,24 h 43.4 M 123.8,778.84 v -1.54"
       stroke="#3a414a"
       stroke-width="3"
       fill="none"
       id="path54" />
    <path
       d="m 199.36,1031.16 -12.9,7.64 v -15.27 z"
       stroke="#3a414a"
       stroke-width="3"
       fill="#3a414a"
       id="path55" />
    <path
       d="m 2961.8,947.7 a 6,6 0 0 1 6,-6 h 398.08 a 6,6 0 0 1 6,6 v 178.72 a 6,6 0 0 1 -6,6 H 2967.8 a 6,6 0 0 1 -6,-6 z"
       stroke="#5e5e5e"
       stroke-width="3"
       fill="#b5d6ff"
       id="path56" />
    <use
       xlink:href="#p"
       transform="translate(3076.7445,1041.2231)"
       id="use56" />
    <use
       xlink:href="#q"
       transform="translate(3168.0902,1041.2231)"
       id="use57" />
    <path
       d="m 2909.57,784.7 v 228.37 a 24,24 0 0 0 24,24 h 15.63 m -39.63,-252.32 v -1.54"
       stroke="#3a414a"
       stroke-width="3"
       fill="none"
       id="path57" />
    <path
       d="m 2957.37,1037.07 -12.9,7.63 v -15.27 z"
       stroke="#3a414a"
       stroke-width="3"
       fill="#3a414a"
       id="path58" />
    <path
       d="m 2961.8,1203.57 a 6,6 0 0 1 6,-6 h 398.08 a 6,6 0 0 1 6,6 v 178.7 a 6,6 0 0 1 -6,6 H 2967.8 a 6,6 0 0 1 -6,-6 z"
       stroke="#5e5e5e"
       stroke-width="3"
       fill="#b5d6ff"
       id="path59" />
    <use
       xlink:href="#r"
       transform="translate(3087.9791,1297.0811)"
       id="use59" />
    <path
       d="m 2909.57,784.7 v 517.75 a 24,24 0 0 0 24,24 h 15.63 m -39.63,-541.7 v -1.54"
       stroke="#3a414a"
       stroke-width="3"
       fill="none"
       id="path60" />
    <path
       d="m 2957.37,1326.45 -12.9,7.63 v -15.27 z"
       stroke="#3a414a"
       stroke-width="3"
       fill="#3a414a"
       id="path61" />
    <path
       d="m 2909.57,784.7 v 517.75 a 24,24 0 0 0 24,24 h 15.63 m -39.63,-541.7 v -1.54"
       stroke="#3a414a"
       stroke-width="3"
       fill="none"
       id="path62" />
    <path
       d="m 2957.37,1326.45 -12.9,7.63 v -15.27 z"
       stroke="#3a414a"
       stroke-width="3"
       fill="#3a414a"
       id="path63" />
    <path
       d="m 2042.05,687.85 h 60.9"
       stroke="#3a414a"
       stroke-width="3"
       stroke-linejoin="round"
       fill="none"
       id="path64" />
    <path
       d="m 2042.1,689.35 h -1.55 v -3 h 1.54 z"
       stroke="#3a414a"
       stroke-width="0.05"
       fill="#3a414a"
       id="path65" />
    <path
       d="m 2111.1,687.85 -12.9,7.64 V 680.2 Z"
       stroke="#3a414a"
       stroke-width="3"
       fill="#3a414a"
       id="path66" />
    <path
       d="m 2404.08,786.2 v 60.9"
       stroke="#3a414a"
       stroke-width="3"
       stroke-linejoin="round"
       fill="none"
       id="path67" />
    <path
       d="m 2405.58,786.25 h -3 v -1.54 h 3 z"
       stroke="#3a414a"
       stroke-width="0.05"
       fill="#3a414a"
       id="path68" />
    <path
       d="m 2404.08,855.26 -7.63,-12.9 h 15.27 z"
       stroke="#3a414a"
       stroke-width="3"
       fill="#3a414a"
       id="path69" />
    <defs
       id="defs196">
      <path
         fill="#333333"
         d="m 212,-179 c -10,-28 -35,-45 -73,-45 -59,0 -87,40 -87,99 0,60 29,101 89,101 43,0 62,-24 78,-52 l 27,14 C 228,-24 195,4 139,4 59,4 22,-46 18,-125 c -6,-104 99,-153 187,-111 19,9 31,26 39,46"
         id="s" />
      <path
         fill="#333333"
         d="M 141,-36 C 126,-15 110,5 73,4 37,3 15,-17 15,-53 c -1,-64 63,-63 125,-63 3,-35 -9,-54 -41,-54 -24,1 -41,7 -42,31 l -33,-3 c 5,-37 33,-52 76,-52 45,0 72,20 72,64 v 82 c -1,20 7,32 28,27 V -1 C 169,8 139,-3 141,-36 Z M 48,-53 c 0,20 12,33 32,33 41,-3 63,-29 60,-74 -43,2 -92,-5 -92,41"
         id="t" />
      <path
         fill="#333333"
         d="m 115,-194 c 55,1 70,41 70,98 C 185,-39 169,2 115,4 84,4 66,-9 55,-30 L 56,75 H 24 l -1,-265 h 31 l 2,30 c 10,-21 28,-34 59,-34 z m -8,174 c 40,0 45,-34 45,-75 0,-41 -6,-73 -45,-74 -42,0 -51,32 -51,76 0,43 10,73 51,73"
         id="u" />
      <path
         fill="#333333"
         d="M 179,-190 93,31 C 79,59 56,82 12,73 V 49 C 51,55 65,29 76,-1 L 1,-190 h 34 l 57,156 54,-156 h 33"
         id="v" />
      <path
         fill="#333333"
         d="m 185,-189 c -5,-48 -123,-54 -124,2 14,75 158,14 163,119 C 227,10 103,19 49,-13 32,-23 21,-39 16,-59 l 33,-7 c 5,56 141,63 141,-1 0,-78 -155,-14 -162,-118 -5,-82 145,-84 179,-34 5,7 8,16 11,25"
         id="w" />
      <path
         fill="#333333"
         d="M 106,-169 C 34,-169 62,-67 57,0 H 25 v -261 h 32 l -1,103 c 12,-21 28,-36 61,-36 89,0 53,116 60,194 h -32 v -121 c 2,-32 -8,-49 -39,-48"
         id="x" />
      <path
         fill="#333333"
         d="m 100,-194 c 62,-1 85,37 85,99 1,63 -27,99 -86,99 -59,0 -83,-39 -84,-99 0,-66 28,-99 85,-99 z m -1,174 c 44,1 53,-31 53,-75 0,-43 -8,-75 -51,-75 -43,0 -53,32 -53,75 0,43 10,74 51,75"
         id="y" />
      <g
         id="a">
        <use
           transform="scale(0.08641975)"
           xlink:href="#s"
           id="use69" />
        <use
           transform="matrix(0.08641975,0,0,0.08641975,22.382716,0)"
           xlink:href="#t"
           id="use70" />
        <use
           transform="matrix(0.08641975,0,0,0.08641975,39.666667,0)"
           xlink:href="#u"
           id="use71" />
        <use
           transform="matrix(0.08641975,0,0,0.08641975,56.950617,0)"
           xlink:href="#v"
           id="use72" />
        <use
           transform="matrix(0.08641975,0,0,0.08641975,72.506173,0)"
           xlink:href="#w"
           id="use73" />
        <use
           transform="matrix(0.08641975,0,0,0.08641975,93.246914,0)"
           xlink:href="#x"
           id="use74" />
        <use
           transform="matrix(0.08641975,0,0,0.08641975,110.53086,0)"
           xlink:href="#y"
           id="use75" />
        <use
           transform="matrix(0.08641975,0,0,0.08641975,127.81481,0)"
           xlink:href="#u"
           id="use76" />
        <path
           fill="#8080ff"
           d="m -1.56,2.16 h 148.2 V 4.44 H -1.55 Z"
           id="path76" />
      </g>
      <path
         fill="#333333"
         d="M 33,0 V -248 H 67 V 0 H 33"
         id="z" />
      <path
         fill="#333333"
         d="m 117,-194 c 89,-4 53,116 60,194 h -32 v -121 c 0,-31 -8,-49 -39,-48 C 34,-167 62,-67 57,0 H 25 l -1,-190 h 30 c 1,10 -1,24 2,32 11,-22 29,-35 61,-36"
         id="A" />
      <path
         fill="#333333"
         d="m 24,-231 v -30 h 32 v 30 z M 24,0 V -190 H 56 V 0 H 24"
         id="B" />
      <path
         fill="#333333"
         d="m 96,-169 c -40,0 -48,33 -48,73 0,40 9,75 48,75 24,0 41,-14 43,-38 l 32,2 C 165,-20 140,4 97,4 38,4 21,-37 15,-95 c -10,-93 101,-131 147,-64 4,7 5,14 7,22 l -32,3 c -4,-21 -16,-35 -41,-35"
         id="C" />
      <g
         id="b">
        <use
           transform="scale(0.08641975)"
           xlink:href="#z"
           id="use77" />
        <use
           transform="matrix(0.08641975,0,0,0.08641975,8.6419753,0)"
           xlink:href="#A"
           id="use78" />
        <use
           transform="matrix(0.08641975,0,0,0.08641975,25.925926,0)"
           xlink:href="#B"
           id="use79" />
        <use
           transform="matrix(0.08641975,0,0,0.08641975,32.753086,0)"
           xlink:href="#C"
           id="use80" />
        <use
           transform="matrix(0.08641975,0,0,0.08641975,48.308642,0)"
           xlink:href="#B"
           id="use81" />
        <use
           transform="matrix(0.08641975,0,0,0.08641975,55.135802,0)"
           xlink:href="#y"
           id="use82" />
      </g>
      <path
         fill="#333333"
         d="m 30,-248 c 87,1 191,-15 191,75 0,78 -77,80 -158,76 V 0 H 30 Z m 33,125 c 57,0 124,11 124,-50 0,-59 -68,-47 -124,-48 v 98"
         id="D" />
      <path
         fill="#333333"
         d="M 114,-163 C 36,-179 61,-72 57,0 H 25 l -1,-190 h 30 c 1,12 -1,29 2,39 6,-27 23,-49 58,-41 v 29"
         id="E" />
      <path
         fill="#333333"
         d="m 85,-194 c 31,0 48,13 60,33 l -1,-100 h 32 l 1,261 h -30 c -2,-10 0,-23 -3,-31 C 134,-8 116,4 85,4 32,4 16,-35 15,-94 c 0,-66 23,-100 70,-100 z m 9,24 c -40,0 -46,34 -46,75 0,40 6,74 45,74 42,0 51,-32 51,-76 0,-42 -9,-74 -50,-73"
         id="F" />
      <path
         fill="#333333"
         d="M 84,4 C -5,8 30,-112 23,-190 h 32 v 120 c 0,31 7,50 39,49 72,-2 45,-101 50,-169 h 31 l 1,190 h -30 c -1,-10 1,-25 -2,-33 -11,22 -28,36 -60,37"
         id="G" />
      <path
         fill="#333333"
         d="m 59,-47 c -2,24 18,29 38,22 V -1 C 64,9 27,4 27,-40 V -167 H 5 v -23 h 24 l 9,-43 h 21 v 43 h 35 v 23 H 59 v 120"
         id="H" />
      <path
         fill="#333333"
         d="m 135,-143 c -3,-34 -86,-38 -87,0 15,53 115,12 119,90 4,78 -150,74 -157,8 l 28,-5 c 4,36 97,45 98,0 -10,-56 -113,-15 -118,-90 -4,-57 82,-63 122,-42 12,7 21,19 24,35"
         id="I" />
      <g
         id="c">
        <use
           transform="scale(0.08641975)"
           xlink:href="#D"
           id="use83" />
        <use
           transform="matrix(0.08641975,0,0,0.08641975,20.740741,0)"
           xlink:href="#E"
           id="use84" />
        <use
           transform="matrix(0.08641975,0,0,0.08641975,31.024691,0)"
           xlink:href="#y"
           id="use85" />
        <use
           transform="matrix(0.08641975,0,0,0.08641975,48.308642,0)"
           xlink:href="#F"
           id="use86" />
        <use
           transform="matrix(0.08641975,0,0,0.08641975,65.592593,0)"
           xlink:href="#G"
           id="use87" />
        <use
           transform="matrix(0.08641975,0,0,0.08641975,82.876543,0)"
           xlink:href="#C"
           id="use88" />
        <use
           transform="matrix(0.08641975,0,0,0.08641975,98.432099,0)"
           xlink:href="#H"
           id="use89" />
        <use
           transform="matrix(0.08641975,0,0,0.08641975,107.07407,0)"
           xlink:href="#y"
           id="use90" />
        <use
           transform="matrix(0.08641975,0,0,0.08641975,124.35802,0)"
           xlink:href="#I"
           id="use91" />
      </g>
      <path
         fill="#333333"
         d="m 140,-251 c 81,0 123,46 123,126 C 263,-46 219,4 140,4 59,4 17,-45 17,-125 c 0,-80 42,-126 123,-126 z m 0,227 c 63,0 89,-41 89,-101 0,-60 -29,-99 -89,-99 -61,0 -89,39 -89,99 0,60 28,100 89,101"
         id="J" />
      <path
         fill="#333333"
         d="m 100,-194 c 63,0 86,42 84,106 H 49 c 0,40 14,67 53,68 26,1 43,-12 49,-29 l 28,8 C 168,-13 142,4 102,4 44,4 14,-33 15,-96 c 1,-61 26,-98 85,-98 z m 52,81 c 6,-60 -76,-77 -97,-28 -3,7 -6,17 -6,28 h 103"
         id="K" />
      <g
         id="d">
        <use
           transform="scale(0.08641975)"
           xlink:href="#J"
           id="use92" />
        <use
           transform="matrix(0.08641975,0,0,0.08641975,24.197531,0)"
           xlink:href="#E"
           id="use93" />
        <use
           transform="matrix(0.08641975,0,0,0.08641975,34.481481,0)"
           xlink:href="#F"
           id="use94" />
        <use
           transform="matrix(0.08641975,0,0,0.08641975,51.765432,0)"
           xlink:href="#K"
           id="use95" />
        <use
           transform="matrix(0.08641975,0,0,0.08641975,69.049383,0)"
           xlink:href="#A"
           id="use96" />
        <use
           transform="matrix(0.08641975,0,0,0.08641975,86.333333,0)"
           xlink:href="#K"
           id="use97" />
        <use
           transform="matrix(0.08641975,0,0,0.08641975,103.61728,0)"
           xlink:href="#I"
           id="use98" />
      </g>
      <g
         id="e">
        <use
           transform="scale(0.08641975)"
           xlink:href="#s"
           id="use99" />
        <use
           transform="matrix(0.08641975,0,0,0.08641975,22.382716,0)"
           xlink:href="#y"
           id="use100" />
        <use
           transform="matrix(0.08641975,0,0,0.08641975,39.666667,0)"
           xlink:href="#A"
           id="use101" />
        <use
           transform="matrix(0.08641975,0,0,0.08641975,56.950617,0)"
           xlink:href="#H"
           id="use102" />
        <use
           transform="matrix(0.08641975,0,0,0.08641975,65.592593,0)"
           xlink:href="#t"
           id="use103" />
        <use
           transform="matrix(0.08641975,0,0,0.08641975,82.876543,0)"
           xlink:href="#C"
           id="use104" />
        <use
           transform="matrix(0.08641975,0,0,0.08641975,98.432099,0)"
           xlink:href="#H"
           id="use105" />
        <use
           transform="matrix(0.08641975,0,0,0.08641975,107.07407,0)"
           xlink:href="#y"
           id="use106" />
      </g>
      <path
         fill="#333333"
         d="m 210,-169 c -67,3 -38,105 -44,169 h -31 v -121 c 0,-29 -5,-50 -35,-48 C 34,-165 62,-65 56,0 H 25 l -1,-190 h 30 c 1,10 -1,24 2,32 10,-44 99,-50 107,0 11,-21 27,-35 58,-36 85,-2 47,119 55,194 h -31 v -121 c 0,-29 -5,-49 -35,-48"
         id="L" />
      <g
         id="f">
        <use
           transform="scale(0.08641975)"
           xlink:href="#s"
           id="use107" />
        <use
           transform="matrix(0.08641975,0,0,0.08641975,22.382716,0)"
           xlink:href="#y"
           id="use108" />
        <use
           transform="matrix(0.08641975,0,0,0.08641975,39.666667,0)"
           xlink:href="#L"
           id="use109" />
        <use
           transform="matrix(0.08641975,0,0,0.08641975,65.506173,0)"
           xlink:href="#u"
           id="use110" />
        <use
           transform="matrix(0.08641975,0,0,0.08641975,82.790123,0)"
           xlink:href="#E"
           id="use111" />
        <use
           transform="matrix(0.08641975,0,0,0.08641975,93.074074,0)"
           xlink:href="#t"
           id="use112" />
        <use
           transform="matrix(0.08641975,0,0,0.08641975,110.35802,0)"
           xlink:href="#I"
           id="use113" />
      </g>
      <g
         id="g">
        <use
           transform="scale(0.08641975)"
           xlink:href="#z"
           id="use114" />
        <use
           transform="matrix(0.08641975,0,0,0.08641975,8.6419753,0)"
           xlink:href="#A"
           id="use115" />
        <use
           transform="matrix(0.08641975,0,0,0.08641975,25.925926,0)"
           xlink:href="#B"
           id="use116" />
        <use
           transform="matrix(0.08641975,0,0,0.08641975,32.753086,0)"
           xlink:href="#C"
           id="use117" />
        <use
           transform="matrix(0.08641975,0,0,0.08641975,48.308642,0)"
           xlink:href="#B"
           id="use118" />
        <use
           transform="matrix(0.08641975,0,0,0.08641975,55.135802,0)"
           xlink:href="#t"
           id="use119" />
        <use
           transform="matrix(0.08641975,0,0,0.08641975,72.419753,0)"
           xlink:href="#E"
           id="use120" />
        <path
           fill="#8080ff"
           d="M -1.56,2.16 H 92.9 V 4.44 H -1.56 Z"
           id="path120" />
      </g>
      <path
         fill="#333333"
         d="m 100,-194 c 62,-1 85,37 85,99 1,63 -27,99 -86,99 -59,0 -83,-39 -84,-99 0,-66 28,-99 85,-99 z m -1,174 c 44,1 53,-31 53,-75 0,-43 -8,-75 -51,-75 -43,0 -53,32 -53,75 0,43 10,74 51,75 z M 76,-211 c 8,-23 27,-35 38,-54 h 36 v 5 l -58,49 H 76"
         id="M" />
      <g
         id="h">
        <use
           transform="scale(0.08641975)"
           xlink:href="#I"
           id="use121" />
        <use
           transform="matrix(0.08641975,0,0,0.08641975,15.555556,0)"
           xlink:href="#K"
           id="use122" />
        <use
           transform="matrix(0.08641975,0,0,0.08641975,32.839506,0)"
           xlink:href="#I"
           id="use123" />
        <use
           transform="matrix(0.08641975,0,0,0.08641975,48.395062,0)"
           xlink:href="#B"
           id="use124" />
        <use
           transform="matrix(0.08641975,0,0,0.08641975,55.222222,0)"
           xlink:href="#M"
           id="use125" />
        <use
           transform="matrix(0.08641975,0,0,0.08641975,72.506173,0)"
           xlink:href="#A"
           id="use126" />
        <path
           fill="#8080ff"
           d="m -1.56,2.16 h 92.9 v 2.28 h -92.9 z"
           id="path126" />
      </g>
      <path
         fill="#333333"
         d="m 233,-177 c -1,41 -23,64 -60,70 L 243,0 H 205 L 140,-103 H 63 V 0 H 30 v -248 c 88,3 205,-21 203,71 z m -170,48 c 60,-2 137,13 137,-47 0,-61 -80,-42 -137,-45 v 92"
         id="N" />
      <path
         fill="#333333"
         d="M 177,-190 C 167,-65 218,103 67,71 44,65 29,51 23,28 L 55,23 C 70,70 155,55 144,-5 V -35 C 133,-14 115,1 83,1 29,1 15,-40 15,-95 c 0,-56 16,-97 71,-98 29,-1 48,16 59,35 1,-10 0,-23 2,-32 z M 94,-22 c 36,0 50,-32 50,-73 0,-42 -14,-75 -50,-75 -39,0 -46,34 -46,75 0,41 6,73 46,73"
         id="O" />
      <g
         id="i">
        <use
           transform="scale(0.08641975)"
           xlink:href="#N"
           id="use127" />
        <use
           transform="matrix(0.08641975,0,0,0.08641975,22.382716,0)"
           xlink:href="#K"
           id="use128" />
        <use
           transform="matrix(0.08641975,0,0,0.08641975,39.666667,0)"
           xlink:href="#O"
           id="use129" />
        <use
           transform="matrix(0.08641975,0,0,0.08641975,56.950617,0)"
           xlink:href="#B"
           id="use130" />
        <use
           transform="matrix(0.08641975,0,0,0.08641975,63.777778,0)"
           xlink:href="#I"
           id="use131" />
        <use
           transform="matrix(0.08641975,0,0,0.08641975,79.333333,0)"
           xlink:href="#H"
           id="use132" />
        <use
           transform="matrix(0.08641975,0,0,0.08641975,87.975309,0)"
           xlink:href="#E"
           id="use133" />
        <use
           transform="matrix(0.08641975,0,0,0.08641975,98.259259,0)"
           xlink:href="#t"
           id="use134" />
        <use
           transform="matrix(0.08641975,0,0,0.08641975,115.54321,0)"
           xlink:href="#E"
           id="use135" />
      </g>
      <g
         id="j">
        <use
           transform="scale(0.08641975)"
           xlink:href="#J"
           id="use136" />
        <use
           transform="matrix(0.08641975,0,0,0.08641975,24.197531,0)"
           xlink:href="#E"
           id="use137" />
        <use
           transform="matrix(0.08641975,0,0,0.08641975,34.481481,0)"
           xlink:href="#F"
           id="use138" />
        <use
           transform="matrix(0.08641975,0,0,0.08641975,51.765432,0)"
           xlink:href="#K"
           id="use139" />
        <use
           transform="matrix(0.08641975,0,0,0.08641975,69.049383,0)"
           xlink:href="#A"
           id="use140" />
      </g>
      <path
         fill="#333333"
         d="m 30,0 v -248 h 187 v 28 H 63 v 79 h 144 v 27 H 63 v 87 H 225 V 0 H 30"
         id="P" />
      <g
         id="k">
        <use
           transform="scale(0.08641975)"
           xlink:href="#P"
           id="use141" />
        <use
           transform="matrix(0.08641975,0,0,0.08641975,20.740741,0)"
           xlink:href="#F"
           id="use142" />
        <use
           transform="matrix(0.08641975,0,0,0.08641975,38.024691,0)"
           xlink:href="#B"
           id="use143" />
        <use
           transform="matrix(0.08641975,0,0,0.08641975,44.851852,0)"
           xlink:href="#H"
           id="use144" />
        <use
           transform="matrix(0.08641975,0,0,0.08641975,53.493827,0)"
           xlink:href="#t"
           id="use145" />
        <use
           transform="matrix(0.08641975,0,0,0.08641975,70.777778,0)"
           xlink:href="#E"
           id="use146" />
      </g>
      <path
         fill="#333333"
         d="M 137,0 H 103 L 2,-248 h 35 l 83,218 83,-218 h 36"
         id="Q" />
      <g
         id="l">
        <use
           transform="scale(0.08641975)"
           xlink:href="#Q"
           id="use147" />
        <use
           transform="matrix(0.08641975,0,0,0.08641975,19.012346,0)"
           xlink:href="#K"
           id="use148" />
        <use
           transform="matrix(0.08641975,0,0,0.08641975,36.296296,0)"
           xlink:href="#E"
           id="use149" />
      </g>
      <g
         id="m">
        <use
           transform="scale(0.08641975)"
           xlink:href="#u"
           id="use150" />
        <use
           transform="matrix(0.08641975,0,0,0.08641975,17.283951,0)"
           xlink:href="#E"
           id="use151" />
        <use
           transform="matrix(0.08641975,0,0,0.08641975,27.567901,0)"
           xlink:href="#y"
           id="use152" />
        <use
           transform="matrix(0.08641975,0,0,0.08641975,44.851852,0)"
           xlink:href="#F"
           id="use153" />
        <use
           transform="matrix(0.08641975,0,0,0.08641975,62.135802,0)"
           xlink:href="#G"
           id="use154" />
        <use
           transform="matrix(0.08641975,0,0,0.08641975,79.419753,0)"
           xlink:href="#C"
           id="use155" />
        <use
           transform="matrix(0.08641975,0,0,0.08641975,94.975309,0)"
           xlink:href="#H"
           id="use156" />
        <use
           transform="matrix(0.08641975,0,0,0.08641975,103.61728,0)"
           xlink:href="#y"
           id="use157" />
      </g>
      <path
         fill="#333333"
         d="M 190,0 58,-211 59,0 H 30 v -248 h 39 l 133,213 -2,-213 h 31 V 0 h -41"
         id="R" />
      <g
         id="n">
        <use
           transform="scale(0.08641975)"
           xlink:href="#R"
           id="use158" />
        <use
           transform="matrix(0.08641975,0,0,0.08641975,22.382716,0)"
           xlink:href="#G"
           id="use159" />
        <use
           transform="matrix(0.08641975,0,0,0.08641975,39.666667,0)"
           xlink:href="#K"
           id="use160" />
        <use
           transform="matrix(0.08641975,0,0,0.08641975,56.950617,0)"
           xlink:href="#I"
           id="use161" />
        <use
           transform="matrix(0.08641975,0,0,0.08641975,72.506173,0)"
           xlink:href="#H"
           id="use162" />
        <use
           transform="matrix(0.08641975,0,0,0.08641975,81.148148,0)"
           xlink:href="#E"
           id="use163" />
        <use
           transform="matrix(0.08641975,0,0,0.08641975,91.432099,0)"
           xlink:href="#y"
           id="use164" />
        <use
           transform="matrix(0.08641975,0,0,0.08641975,108.71605,0)"
           xlink:href="#I"
           id="use165" />
      </g>
      <path
         fill="#333333"
         d="M 24,0 V -261 H 56 V 0 H 24"
         id="S" />
      <g
         id="o">
        <use
           transform="scale(0.08641975)"
           xlink:href="#t"
           id="use166" />
        <use
           transform="matrix(0.08641975,0,0,0.08641975,17.283951,0)"
           xlink:href="#S"
           id="use167" />
        <use
           transform="matrix(0.08641975,0,0,0.08641975,24.111111,0)"
           xlink:href="#B"
           id="use168" />
        <use
           transform="matrix(0.08641975,0,0,0.08641975,30.938272,0)"
           xlink:href="#t"
           id="use169" />
        <use
           transform="matrix(0.08641975,0,0,0.08641975,48.222222,0)"
           xlink:href="#F"
           id="use170" />
        <use
           transform="matrix(0.08641975,0,0,0.08641975,65.506173,0)"
           xlink:href="#y"
           id="use171" />
        <use
           transform="matrix(0.08641975,0,0,0.08641975,82.790123,0)"
           xlink:href="#I"
           id="use172" />
      </g>
      <g
         id="p">
        <use
           transform="scale(0.08641975)"
           xlink:href="#z"
           id="use173" />
        <use
           transform="matrix(0.08641975,0,0,0.08641975,8.6419753,0)"
           xlink:href="#A"
           id="use174" />
        <use
           transform="matrix(0.08641975,0,0,0.08641975,25.925926,0)"
           xlink:href="#B"
           id="use175" />
        <use
           transform="matrix(0.08641975,0,0,0.08641975,32.753086,0)"
           xlink:href="#C"
           id="use176" />
        <use
           transform="matrix(0.08641975,0,0,0.08641975,48.308642,0)"
           xlink:href="#B"
           id="use177" />
        <use
           transform="matrix(0.08641975,0,0,0.08641975,55.135802,0)"
           xlink:href="#t"
           id="use178" />
        <use
           transform="matrix(0.08641975,0,0,0.08641975,72.419753,0)"
           xlink:href="#E"
           id="use179" />
      </g>
      <g
         id="q">
        <use
           transform="scale(0.08641975)"
           xlink:href="#I"
           id="use180" />
        <use
           transform="matrix(0.08641975,0,0,0.08641975,15.555556,0)"
           xlink:href="#K"
           id="use181" />
        <use
           transform="matrix(0.08641975,0,0,0.08641975,32.839506,0)"
           xlink:href="#I"
           id="use182" />
        <use
           transform="matrix(0.08641975,0,0,0.08641975,48.395062,0)"
           xlink:href="#B"
           id="use183" />
        <use
           transform="matrix(0.08641975,0,0,0.08641975,55.222222,0)"
           xlink:href="#M"
           id="use184" />
        <use
           transform="matrix(0.08641975,0,0,0.08641975,72.506173,0)"
           xlink:href="#A"
           id="use185" />
      </g>
      <g
         id="r">
        <use
           transform="scale(0.08641975)"
           xlink:href="#N"
           id="use186" />
        <use
           transform="matrix(0.08641975,0,0,0.08641975,22.382716,0)"
           xlink:href="#K"
           id="use187" />
        <use
           transform="matrix(0.08641975,0,0,0.08641975,39.666667,0)"
           xlink:href="#O"
           id="use188" />
        <use
           transform="matrix(0.08641975,0,0,0.08641975,56.950617,0)"
           xlink:href="#B"
           id="use189" />
        <use
           transform="matrix(0.08641975,0,0,0.08641975,63.777778,0)"
           xlink:href="#I"
           id="use190" />
        <use
           transform="matrix(0.08641975,0,0,0.08641975,79.333333,0)"
           xlink:href="#H"
           id="use191" />
        <use
           transform="matrix(0.08641975,0,0,0.08641975,87.975309,0)"
           xlink:href="#E"
           id="use192" />
        <use
           transform="matrix(0.08641975,0,0,0.08641975,98.259259,0)"
           xlink:href="#t"
           id="use193" />
        <use
           transform="matrix(0.08641975,0,0,0.08641975,115.54321,0)"
           xlink:href="#E"
           id="use194" />
        <use
           transform="matrix(0.08641975,0,0,0.08641975,125.82716,0)"
           xlink:href="#I"
           id="use195" />
        <use
           transform="matrix(0.08641975,0,0,0.08641975,141.38272,0)"
           xlink:href="#K"
           id="use196" />
      </g>
    </defs>
  </g>
</svg>
