<svg xmlns="http://www.w3.org/2000/svg" xmlns:xlink="http://www.w3.org/1999/xlink" xmlns:lucid="lucid" width="3516.11" height="1435.52"><g transform="translate(122.7258048266267 -212.87611541605958)" lucid:page-tab-id="0_0"><path d="M1058.9 240.38a6 6 0 0 1 6-6H1463a6 6 0 0 1 6 6v178.7a6 6 0 0 1-6 6H1064.9a6 6 0 0 1-6-6z" stroke="#5e5e5e" stroke-width="3" fill="#ff9090"/><use xlink:href="#a" transform="matrix(1,0,0,1,1070.9114647500273,246.37611541605958) translate(120.9506172839506 87.51388888888889)"/><a xlink:href="http://localhost:5000/home" target="_blank" transform="matrix(1,0,0,1,1070.9114647500273,246.37611541605958)"><path class="lucid-link lucid-hotspot lucid-overlay-hotspot" fill-opacity="0" d="M120.95 62.63h145.1v37.33h-145.1z"/></a><a xlink:href="http://localhost:5000/home" target="_blank"><path d="M-81.23 591.1a6 6 0 0 1 6-6h398.07a6 6 0 0 1 6 6v178.7a6 6 0 0 1-6 6H-75.23a6 6 0 0 1-6-6z" stroke="#5e5e5e" stroke-width="3" fill="#a7a6ff"/><use xlink:href="#b" transform="matrix(1,0,0,1,-69.2258048266267,597.089911169712) translate(157.29012345679013 87.51388888888889)"/><path class="lucid-link lucid-hotspot lucid-overlay-hotspot" d="M-81.23 591.1a6 6 0 0 1 6-6h398.07a6 6 0 0 1 6 6v178.7a6 6 0 0 1-6 6H-75.23a6 6 0 0 1-6-6z" fill="none"/></a><a xlink:href="http://localhost:5000/products" target="_blank"><path d="M488.84 591.1a6 6 0 0 1 6-6H892.9a6 6 0 0 1 6 6v178.7a6 6 0 0 1-6 6H494.85a6 6 0 0 1-6-6z" stroke="#5e5e5e" stroke-width="3" fill="#a7a6ff"/><use xlink:href="#c" transform="matrix(1,0,0,1,500.8428299617003,597.089911169712) translate(123.54320987654322 87.51388888888889)"/><path class="lucid-link lucid-hotspot lucid-overlay-hotspot" d="M488.84 591.1a6 6 0 0 1 6-6H892.9a6 6 0 0 1 6 6v178.7a6 6 0 0 1-6 6H494.85a6 6 0 0 1-6-6z" fill="none"/></a><a xlink:href="http://localhost:5000/ordenes" target="_blank"><path d="M1058.9 591.1a6 6 0 0 1 6-6H1463a6 6 0 0 1 6 6v178.7a6 6 0 0 1-6 6H1064.9a6 6 0 0 1-6-6z" stroke="#5e5e5e" stroke-width="3" fill="#a7a6ff"/><use xlink:href="#d" transform="matrix(1,0,0,1,1070.9114647500273,597.089911169712) translate(133.91358024691357 87.51388888888889)"/><path class="lucid-link lucid-hotspot lucid-overlay-hotspot" d="M1058.9 591.1a6 6 0 0 1 6-6H1463a6 6 0 0 1 6 6v178.7a6 6 0 0 1-6 6H1064.9a6 6 0 0 1-6-6z" fill="none"/></a><a xlink:href="http://localhost:5000/contacto" target="_blank"><path d="M1628.98 598.5a6 6 0 0 1 6-6h398.07a6 6 0 0 1 6 6v178.7a6 6 0 0 1-6 6h-398.07a6 6 0 0 1-6-6z" stroke="#5e5e5e" stroke-width="3" fill="#a7a6ff"/><use xlink:href="#e" transform="matrix(1,0,0,1,1640.9800995383544,604.4953324677939) translate(131.320987654321 87.51388888888889)"/><path class="lucid-link lucid-hotspot lucid-overlay-hotspot" d="M1628.98 598.5a6 6 0 0 1 6-6h398.07a6 6 0 0 1 6 6v178.7a6 6 0 0 1-6 6h-398.07a6 6 0 0 1-6-6z" fill="none"/></a><a xlink:href="http://localhost:5000/compras" target="_blank"><path d="M2199.05 598.5a6 6 0 0 1 6-6h398.07a6 6 0 0 1 6 6v178.7a6 6 0 0 1-6 6h-398.07a6 6 0 0 1-6-6z" stroke="#5e5e5e" stroke-width="3" fill="#a7a6ff"/><use xlink:href="#f" transform="matrix(1,0,0,1,2211.0487343266814,604.495332467794) translate(130.54320987654322 87.51388888888889)"/><path class="lucid-link lucid-hotspot lucid-overlay-hotspot" d="M2199.05 598.5a6 6 0 0 1 6-6h398.07a6 6 0 0 1 6 6v178.7a6 6 0 0 1-6 6h-398.07a6 6 0 0 1-6-6z" fill="none"/></a><path d="M1263.95 428.1v144.38" stroke="#3a414a" stroke-width="3" fill="none"/><path d="M1265.45 428.13h-3v-1.54h3z" stroke="#3a414a" stroke-width=".05" fill="#3a414a"/><path d="M1263.95 580.64l-7.64-12.9h15.28z" stroke="#3a414a" stroke-width="3" fill="#3a414a"/><path d="M1265.45 474.02H1810a24 24 0 0 1 24 24v81.87M1265.48 474.02h-1.53" stroke="#3a414a" stroke-width="3" fill="none"/><path d="M1834 588.05l-7.62-12.9h15.27z" stroke="#3a414a" stroke-width="3" fill="#3a414a"/><path d="M1265.45 474.02h1114.63a24 24 0 0 1 24 24v81.87M1265.48 474.02h-1.53" stroke="#3a414a" stroke-width="3" fill="none"/><path d="M2404.08 588.05l-7.63-12.9h15.27z" stroke="#3a414a" stroke-width="3" fill="#3a414a"/><path d="M1262.45 474.02H717.88a24 24 0 0 0-24 24v74.46M1262.4 474.02h1.55" stroke="#3a414a" stroke-width="3" fill="none"/><path d="M693.88 580.64l-7.64-12.9h15.27z" stroke="#3a414a" stroke-width="3" fill="#3a414a"/><path d="M1262.45 474.02H147.8a24 24 0 0 0-24 24v74.46M1262.4 474.02h1.55" stroke="#3a414a" stroke-width="3" fill="none"/><path d="M123.8 580.64l-7.63-12.9h15.27z" stroke="#3a414a" stroke-width="3" fill="#3a414a"/><a xlink:href="http://localhost:5000/login" target="_blank"><path d="M2712.9 598.5a6 6 0 0 1 6-6h398.07a6 6 0 0 1 6 6v178.7a6 6 0 0 1-6 6H2718.9a6 6 0 0 1-6-6z" stroke="#5e5e5e" stroke-width="3" fill="#a7a6ff"/><use xlink:href="#g" transform="matrix(1,0,0,1,2724.901809634169,604.4953324677939) translate(102.9320987654321 87.51388888888889)"/><use xlink:href="#h" transform="matrix(1,0,0,1,2724.901809634169,604.4953324677939) translate(194.27777777777777 87.51388888888889)"/><path class="lucid-link lucid-hotspot lucid-overlay-hotspot" d="M2712.9 598.5a6 6 0 0 1 6-6h398.07a6 6 0 0 1 6 6v178.7a6 6 0 0 1-6 6H2718.9a6 6 0 0 1-6-6z" fill="none"/></a><g transform="matrix(1,0,0,1,2724.901809634169,604.4953324677939)"><a xlink:href="http://localhost:5000/login" target="_blank"><path class="lucid-link lucid-hotspot lucid-overlay-hotspot" fill-opacity="0" d="M102.93 62.63h91.35v37.33h-91.35z"/></a><a xlink:href="http://localhost:5000/login" target="_blank"><path class="lucid-link lucid-hotspot lucid-overlay-hotspot" fill-opacity="0" d="M194.28 62.63h89.8v37.33h-89.8z"/></a></g><path d="M1593.48 474.02h1300.46a24 24 0 0 1 24 24v81.87M1593.52 474.02h-1.54" stroke="#3a414a" stroke-width="3" fill="none"/><path d="M2917.94 588.05l-7.64-12.9h15.27z" stroke="#3a414a" stroke-width="3" fill="#3a414a"/><a xlink:href="http://localhost:5000/ordenar" target="_blank"><path d="M1314.56 940.3a6 6 0 0 1 6-6h398.07a6 6 0 0 1 6 6v178.72a6 6 0 0 1-6 6h-398.07a6 6 0 0 1-6-6z" stroke="#5e5e5e" stroke-width="3" fill="#b5d6ff"/><use xlink:href="#i" transform="matrix(1,0,0,1,1326.5564661926962,946.3037566770167) translate(83.09876543209876 87.51388888888889)"/><use xlink:href="#j" transform="matrix(1,0,0,1,1326.5564661926962,946.3037566770167) translate(217.5679012345679 87.51388888888889)"/><path class="lucid-link lucid-hotspot lucid-overlay-hotspot" d="M1314.56 940.3a6 6 0 0 1 6-6h398.07a6 6 0 0 1 6 6v178.72a6 6 0 0 1-6 6h-398.07a6 6 0 0 1-6-6z" fill="none"/></a><path d="M1262.3 777.3v228.36a24 24 0 0 0 24 24h15.65M1262.3 777.34v-1.54" stroke="#3a414a" stroke-width="3" fill="none"/><path d="M1310.1 1029.66l-12.9 7.64v-15.27z" stroke="#3a414a" stroke-width="3" fill="#3a414a"/><path d="M1314.56 1196.16a6 6 0 0 1 6-6h398.07a6 6 0 0 1 6 6v178.72a6 6 0 0 1-6 6h-398.07a6 6 0 0 1-6-6z" stroke="#5e5e5e" stroke-width="3" fill="#b5d6ff"/><use xlink:href="#k" transform="matrix(1,0,0,1,1326.5564661926962,1202.1617769000952) translate(105.48148148148148 87.51388888888889)"/><use xlink:href="#j" transform="matrix(1,0,0,1,1326.5564661926962,1202.1617769000952) translate(195.1851851851852 87.51388888888889)"/><path d="M1262.3 777.3v517.74a24 24 0 0 0 24 24h15.65M1262.3 777.34v-1.54" stroke="#3a414a" stroke-width="3" fill="none"/><path d="M1310.1 1319.04l-12.9 7.64v-15.27z" stroke="#3a414a" stroke-width="3" fill="#3a414a"/><path d="M1262.3 777.3v517.74a24 24 0 0 0 24 24h15.65M1262.3 777.34v-1.54" stroke="#3a414a" stroke-width="3" fill="none"/><path d="M1310.1 1319.04l-12.9 7.64v-15.27z" stroke="#3a414a" stroke-width="3" fill="#3a414a"/><a xlink:href="http://localhost:5000/products" target="_blank"><path d="M746.12 941.8a6 6 0 0 1 6-6h398.07a6 6 0 0 1 6 6v178.72a6 6 0 0 1-6 6H752.1a6 6 0 0 1-6-6z" stroke="#5e5e5e" stroke-width="3" fill="#b5d6ff"/><use xlink:href="#l" transform="matrix(1,0,0,1,758.1211848341401,947.8037069233644) translate(105.43827160493827 87.51388888888889)"/><use xlink:href="#m" transform="matrix(1,0,0,1,758.1211848341401,947.8037069233644) translate(160.6604938271605 87.51388888888889)"/><path class="lucid-link lucid-hotspot lucid-overlay-hotspot" d="M746.12 941.8a6 6 0 0 1 6-6h398.07a6 6 0 0 1 6 6v178.72a6 6 0 0 1-6 6H752.1a6 6 0 0 1-6-6z" fill="none"/></a><path d="M693.88 778.8v228.36a24 24 0 0 0 24 24h15.63M693.88 778.84v-1.54" stroke="#3a414a" stroke-width="3" fill="none"/><path d="M741.67 1031.16l-12.9 7.64v-15.27z" stroke="#3a414a" stroke-width="3" fill="#3a414a"/><a xlink:href="http://localhost:5000/gestion-producto" target="_blank"><path d="M746.12 1197.66a6 6 0 0 1 6-6h398.07a6 6 0 0 1 6 6v178.72a6 6 0 0 1-6 6H752.1a6 6 0 0 1-6-6z" stroke="#5e5e5e" stroke-width="3" fill="#b5d6ff"/><use xlink:href="#i" transform="matrix(1,0,0,1,758.1211848341402,1203.661727146443) translate(65.81481481481481 87.51388888888889)"/><use xlink:href="#m" transform="matrix(1,0,0,1,758.1211848341402,1203.661727146443) translate(200.28395061728395 87.51388888888889)"/><path class="lucid-link lucid-hotspot lucid-overlay-hotspot" d="M746.12 1197.66a6 6 0 0 1 6-6h398.07a6 6 0 0 1 6 6v178.72a6 6 0 0 1-6 6H752.1a6 6 0 0 1-6-6z" fill="none"/></a><path d="M746.12 1442.18a6 6 0 0 1 6-6h398.07a6 6 0 0 1 6 6v178.72a6 6 0 0 1-6 6H752.1a6 6 0 0 1-6-6z" stroke="#5e5e5e" stroke-width="3" fill="#b5d6ff"/><use xlink:href="#k" transform="matrix(1,0,0,1,758.1211848341402,1448.1846186260248) translate(88.19753086419752 87.51388888888889)"/><use xlink:href="#m" transform="matrix(1,0,0,1,758.1211848341402,1448.1846186260248) translate(177.9012345679012 87.51388888888889)"/><path d="M693.88 778.8v517.74a24 24 0 0 0 24 24h15.63M693.88 778.84v-1.54" stroke="#3a414a" stroke-width="3" fill="none"/><path d="M741.67 1320.54l-12.9 7.64v-15.27z" stroke="#3a414a" stroke-width="3" fill="#3a414a"/><path d="M693.88 778.8v517.74a24 24 0 0 0 24 24h15.63M693.88 778.84v-1.54" stroke="#3a414a" stroke-width="3" fill="none"/><path d="M741.67 1320.54l-12.9 7.64v-15.27z" stroke="#3a414a" stroke-width="3" fill="#3a414a"/><path d="M693.88 778.8v728.74a24 24 0 0 0 24 24h15.63M693.88 778.84v-1.54" stroke="#3a414a" stroke-width="3" fill="none"/><path d="M741.67 1531.54l-12.9 7.64v-15.27z" stroke="#3a414a" stroke-width="3" fill="#3a414a"/><a xlink:href="http://localhost:5000/placeholder" target="_blank"><path d="M203.8 941.8a6 6 0 0 1 6-6H607.9a6 6 0 0 1 6 6v178.72a6 6 0 0 1-6 6H209.8a6 6 0 0 1-6-6z" stroke="#5e5e5e" stroke-width="3" fill="#b5d6ff"/><use xlink:href="#n" transform="matrix(1,0,0,1,215.8085125675368,947.8037069233644) translate(77.87037037037035 87.51388888888889)"/><use xlink:href="#o" transform="matrix(1,0,0,1,215.8085125675368,947.8037069233644) translate(210.78395061728395 87.51388888888889)"/><path class="lucid-link lucid-hotspot lucid-overlay-hotspot" d="M203.8 941.8a6 6 0 0 1 6-6H607.9a6 6 0 0 1 6 6v178.72a6 6 0 0 1-6 6H209.8a6 6 0 0 1-6-6z" fill="none"/></a><path d="M123.8 778.8v228.36a24 24 0 0 0 24 24h43.4M123.8 778.84v-1.54" stroke="#3a414a" stroke-width="3" fill="none"/><path d="M199.36 1031.16l-12.9 7.64v-15.27z" stroke="#3a414a" stroke-width="3" fill="#3a414a"/><path d="M2961.8 947.7a6 6 0 0 1 6-6h398.08a6 6 0 0 1 6 6v178.72a6 6 0 0 1-6 6H2967.8a6 6 0 0 1-6-6z" stroke="#5e5e5e" stroke-width="3" fill="#b5d6ff"/><use xlink:href="#p" transform="matrix(1,0,0,1,2973.8123955285328,953.7091779750988) translate(102.9320987654321 87.51388888888889)"/><use xlink:href="#q" transform="matrix(1,0,0,1,2973.8123955285328,953.7091779750988) translate(194.27777777777777 87.51388888888889)"/><path d="M2909.57 784.7v228.37a24 24 0 0 0 24 24h15.63M2909.57 784.75v-1.54" stroke="#3a414a" stroke-width="3" fill="none"/><path d="M2957.37 1037.07l-12.9 7.63v-15.27z" stroke="#3a414a" stroke-width="3" fill="#3a414a"/><path d="M2961.8 1203.57a6 6 0 0 1 6-6h398.08a6 6 0 0 1 6 6v178.7a6 6 0 0 1-6 6H2967.8a6 6 0 0 1-6-6z" stroke="#5e5e5e" stroke-width="3" fill="#b5d6ff"/><use xlink:href="#r" transform="matrix(1,0,0,1,2973.8123955285328,1209.5671981981773) translate(114.16666666666666 87.51388888888889)"/><path d="M2909.57 784.7v517.75a24 24 0 0 0 24 24h15.63M2909.57 784.75v-1.54" stroke="#3a414a" stroke-width="3" fill="none"/><path d="M2957.37 1326.45l-12.9 7.63v-15.27z" stroke="#3a414a" stroke-width="3" fill="#3a414a"/><path d="M2909.57 784.7v517.75a24 24 0 0 0 24 24h15.63M2909.57 784.75v-1.54" stroke="#3a414a" stroke-width="3" fill="none"/><path d="M2957.37 1326.45l-12.9 7.63v-15.27z" stroke="#3a414a" stroke-width="3" fill="#3a414a"/><path d="M2042.05 687.85h60.9" stroke="#3a414a" stroke-width="3" stroke-linejoin="round" fill="none"/><path d="M2042.1 689.35h-1.55v-3h1.54z" stroke="#3a414a" stroke-width=".05" fill="#3a414a"/><path d="M2111.1 687.85l-12.9 7.64V680.2z" stroke="#3a414a" stroke-width="3" fill="#3a414a"/><path d="M2404.08 786.2v60.9" stroke="#3a414a" stroke-width="3" stroke-linejoin="round" fill="none"/><path d="M2405.58 786.25h-3v-1.54h3z" stroke="#3a414a" stroke-width=".05" fill="#3a414a"/><path d="M2404.08 855.26l-7.63-12.9h15.27z" stroke="#3a414a" stroke-width="3" fill="#3a414a"/><defs><path fill="#333" d="M212-179c-10-28-35-45-73-45-59 0-87 40-87 99 0 60 29 101 89 101 43 0 62-24 78-52l27 14C228-24 195 4 139 4 59 4 22-46 18-125c-6-104 99-153 187-111 19 9 31 26 39 46" id="s"/><path fill="#333" d="M141-36C126-15 110 5 73 4 37 3 15-17 15-53c-1-64 63-63 125-63 3-35-9-54-41-54-24 1-41 7-42 31l-33-3c5-37 33-52 76-52 45 0 72 20 72 64v82c-1 20 7 32 28 27v20c-31 9-61-2-59-35zM48-53c0 20 12 33 32 33 41-3 63-29 60-74-43 2-92-5-92 41" id="t"/><path fill="#333" d="M115-194c55 1 70 41 70 98S169 2 115 4C84 4 66-9 55-30l1 105H24l-1-265h31l2 30c10-21 28-34 59-34zm-8 174c40 0 45-34 45-75s-6-73-45-74c-42 0-51 32-51 76 0 43 10 73 51 73" id="u"/><path fill="#333" d="M179-190L93 31C79 59 56 82 12 73V49c39 6 53-20 64-50L1-190h34L92-34l54-156h33" id="v"/><path fill="#333" d="M185-189c-5-48-123-54-124 2 14 75 158 14 163 119 3 78-121 87-175 55-17-10-28-26-33-46l33-7c5 56 141 63 141-1 0-78-155-14-162-118-5-82 145-84 179-34 5 7 8 16 11 25" id="w"/><path fill="#333" d="M106-169C34-169 62-67 57 0H25v-261h32l-1 103c12-21 28-36 61-36 89 0 53 116 60 194h-32v-121c2-32-8-49-39-48" id="x"/><path fill="#333" d="M100-194c62-1 85 37 85 99 1 63-27 99-86 99S16-35 15-95c0-66 28-99 85-99zM99-20c44 1 53-31 53-75 0-43-8-75-51-75s-53 32-53 75 10 74 51 75" id="y"/><g id="a"><use transform="matrix(0.08641975308641976,0,0,0.08641975308641976,0,0)" xlink:href="#s"/><use transform="matrix(0.08641975308641976,0,0,0.08641975308641976,22.38271604938272,0)" xlink:href="#t"/><use transform="matrix(0.08641975308641976,0,0,0.08641975308641976,39.66666666666667,0)" xlink:href="#u"/><use transform="matrix(0.08641975308641976,0,0,0.08641975308641976,56.95061728395062,0)" xlink:href="#v"/><use transform="matrix(0.08641975308641976,0,0,0.08641975308641976,72.50617283950618,0)" xlink:href="#w"/><use transform="matrix(0.08641975308641976,0,0,0.08641975308641976,93.24691358024693,0)" xlink:href="#x"/><use transform="matrix(0.08641975308641976,0,0,0.08641975308641976,110.53086419753087,0)" xlink:href="#y"/><use transform="matrix(0.08641975308641976,0,0,0.08641975308641976,127.81481481481482,0)" xlink:href="#u"/><path fill="#8080ff" d="M-1.56 2.16h148.2v2.28H-1.55z"/></g><path fill="#333" d="M33 0v-248h34V0H33" id="z"/><path fill="#333" d="M117-194c89-4 53 116 60 194h-32v-121c0-31-8-49-39-48C34-167 62-67 57 0H25l-1-190h30c1 10-1 24 2 32 11-22 29-35 61-36" id="A"/><path fill="#333" d="M24-231v-30h32v30H24zM24 0v-190h32V0H24" id="B"/><path fill="#333" d="M96-169c-40 0-48 33-48 73s9 75 48 75c24 0 41-14 43-38l32 2c-6 37-31 61-74 61-59 0-76-41-82-99-10-93 101-131 147-64 4 7 5 14 7 22l-32 3c-4-21-16-35-41-35" id="C"/><g id="b"><use transform="matrix(0.08641975308641976,0,0,0.08641975308641976,0,0)" xlink:href="#z"/><use transform="matrix(0.08641975308641976,0,0,0.08641975308641976,8.641975308641976,0)" xlink:href="#A"/><use transform="matrix(0.08641975308641976,0,0,0.08641975308641976,25.925925925925927,0)" xlink:href="#B"/><use transform="matrix(0.08641975308641976,0,0,0.08641975308641976,32.75308641975309,0)" xlink:href="#C"/><use transform="matrix(0.08641975308641976,0,0,0.08641975308641976,48.308641975308646,0)" xlink:href="#B"/><use transform="matrix(0.08641975308641976,0,0,0.08641975308641976,55.13580246913581,0)" xlink:href="#y"/></g><path fill="#333" d="M30-248c87 1 191-15 191 75 0 78-77 80-158 76V0H30v-248zm33 125c57 0 124 11 124-50 0-59-68-47-124-48v98" id="D"/><path fill="#333" d="M114-163C36-179 61-72 57 0H25l-1-190h30c1 12-1 29 2 39 6-27 23-49 58-41v29" id="E"/><path fill="#333" d="M85-194c31 0 48 13 60 33l-1-100h32l1 261h-30c-2-10 0-23-3-31C134-8 116 4 85 4 32 4 16-35 15-94c0-66 23-100 70-100zm9 24c-40 0-46 34-46 75 0 40 6 74 45 74 42 0 51-32 51-76 0-42-9-74-50-73" id="F"/><path fill="#333" d="M84 4C-5 8 30-112 23-190h32v120c0 31 7 50 39 49 72-2 45-101 50-169h31l1 190h-30c-1-10 1-25-2-33-11 22-28 36-60 37" id="G"/><path fill="#333" d="M59-47c-2 24 18 29 38 22v24C64 9 27 4 27-40v-127H5v-23h24l9-43h21v43h35v23H59v120" id="H"/><path fill="#333" d="M135-143c-3-34-86-38-87 0 15 53 115 12 119 90S17 21 10-45l28-5c4 36 97 45 98 0-10-56-113-15-118-90-4-57 82-63 122-42 12 7 21 19 24 35" id="I"/><g id="c"><use transform="matrix(0.08641975308641976,0,0,0.08641975308641976,0,0)" xlink:href="#D"/><use transform="matrix(0.08641975308641976,0,0,0.08641975308641976,20.740740740740744,0)" xlink:href="#E"/><use transform="matrix(0.08641975308641976,0,0,0.08641975308641976,31.024691358024693,0)" xlink:href="#y"/><use transform="matrix(0.08641975308641976,0,0,0.08641975308641976,48.308641975308646,0)" xlink:href="#F"/><use transform="matrix(0.08641975308641976,0,0,0.08641975308641976,65.5925925925926,0)" xlink:href="#G"/><use transform="matrix(0.08641975308641976,0,0,0.08641975308641976,82.87654320987654,0)" xlink:href="#C"/><use transform="matrix(0.08641975308641976,0,0,0.08641975308641976,98.43209876543212,0)" xlink:href="#H"/><use transform="matrix(0.08641975308641976,0,0,0.08641975308641976,107.07407407407409,0)" xlink:href="#y"/><use transform="matrix(0.08641975308641976,0,0,0.08641975308641976,124.35802469135801,0)" xlink:href="#I"/></g><path fill="#333" d="M140-251c81 0 123 46 123 126C263-46 219 4 140 4 59 4 17-45 17-125s42-126 123-126zm0 227c63 0 89-41 89-101s-29-99-89-99c-61 0-89 39-89 99S79-25 140-24" id="J"/><path fill="#333" d="M100-194c63 0 86 42 84 106H49c0 40 14 67 53 68 26 1 43-12 49-29l28 8c-11 28-37 45-77 45C44 4 14-33 15-96c1-61 26-98 85-98zm52 81c6-60-76-77-97-28-3 7-6 17-6 28h103" id="K"/><g id="d"><use transform="matrix(0.08641975308641976,0,0,0.08641975308641976,0,0)" xlink:href="#J"/><use transform="matrix(0.08641975308641976,0,0,0.08641975308641976,24.19753086419753,0)" xlink:href="#E"/><use transform="matrix(0.08641975308641976,0,0,0.08641975308641976,34.48148148148148,0)" xlink:href="#F"/><use transform="matrix(0.08641975308641976,0,0,0.08641975308641976,51.76543209876543,0)" xlink:href="#K"/><use transform="matrix(0.08641975308641976,0,0,0.08641975308641976,69.04938271604938,0)" xlink:href="#A"/><use transform="matrix(0.08641975308641976,0,0,0.08641975308641976,86.33333333333333,0)" xlink:href="#K"/><use transform="matrix(0.08641975308641976,0,0,0.08641975308641976,103.61728395061728,0)" xlink:href="#I"/></g><g id="e"><use transform="matrix(0.08641975308641976,0,0,0.08641975308641976,0,0)" xlink:href="#s"/><use transform="matrix(0.08641975308641976,0,0,0.08641975308641976,22.38271604938272,0)" xlink:href="#y"/><use transform="matrix(0.08641975308641976,0,0,0.08641975308641976,39.66666666666667,0)" xlink:href="#A"/><use transform="matrix(0.08641975308641976,0,0,0.08641975308641976,56.95061728395062,0)" xlink:href="#H"/><use transform="matrix(0.08641975308641976,0,0,0.08641975308641976,65.5925925925926,0)" xlink:href="#t"/><use transform="matrix(0.08641975308641976,0,0,0.08641975308641976,82.87654320987654,0)" xlink:href="#C"/><use transform="matrix(0.08641975308641976,0,0,0.08641975308641976,98.43209876543212,0)" xlink:href="#H"/><use transform="matrix(0.08641975308641976,0,0,0.08641975308641976,107.07407407407409,0)" xlink:href="#y"/></g><path fill="#333" d="M210-169c-67 3-38 105-44 169h-31v-121c0-29-5-50-35-48C34-165 62-65 56 0H25l-1-190h30c1 10-1 24 2 32 10-44 99-50 107 0 11-21 27-35 58-36 85-2 47 119 55 194h-31v-121c0-29-5-49-35-48" id="L"/><g id="f"><use transform="matrix(0.08641975308641976,0,0,0.08641975308641976,0,0)" xlink:href="#s"/><use transform="matrix(0.08641975308641976,0,0,0.08641975308641976,22.38271604938272,0)" xlink:href="#y"/><use transform="matrix(0.08641975308641976,0,0,0.08641975308641976,39.66666666666667,0)" xlink:href="#L"/><use transform="matrix(0.08641975308641976,0,0,0.08641975308641976,65.50617283950618,0)" xlink:href="#u"/><use transform="matrix(0.08641975308641976,0,0,0.08641975308641976,82.79012345679013,0)" xlink:href="#E"/><use transform="matrix(0.08641975308641976,0,0,0.08641975308641976,93.07407407407409,0)" xlink:href="#t"/><use transform="matrix(0.08641975308641976,0,0,0.08641975308641976,110.35802469135801,0)" xlink:href="#I"/></g><g id="g"><use transform="matrix(0.08641975308641976,0,0,0.08641975308641976,0,0)" xlink:href="#z"/><use transform="matrix(0.08641975308641976,0,0,0.08641975308641976,8.641975308641976,0)" xlink:href="#A"/><use transform="matrix(0.08641975308641976,0,0,0.08641975308641976,25.925925925925927,0)" xlink:href="#B"/><use transform="matrix(0.08641975308641976,0,0,0.08641975308641976,32.75308641975309,0)" xlink:href="#C"/><use transform="matrix(0.08641975308641976,0,0,0.08641975308641976,48.308641975308646,0)" xlink:href="#B"/><use transform="matrix(0.08641975308641976,0,0,0.08641975308641976,55.13580246913581,0)" xlink:href="#t"/><use transform="matrix(0.08641975308641976,0,0,0.08641975308641976,72.41975308641976,0)" xlink:href="#E"/><path fill="#8080ff" d="M-1.56 2.16H92.9v2.28H-1.56z"/></g><path fill="#333" d="M100-194c62-1 85 37 85 99 1 63-27 99-86 99S16-35 15-95c0-66 28-99 85-99zM99-20c44 1 53-31 53-75 0-43-8-75-51-75s-53 32-53 75 10 74 51 75zM76-211c8-23 27-35 38-54h36v5l-58 49H76" id="M"/><g id="h"><use transform="matrix(0.08641975308641976,0,0,0.08641975308641976,0,0)" xlink:href="#I"/><use transform="matrix(0.08641975308641976,0,0,0.08641975308641976,15.555555555555557,0)" xlink:href="#K"/><use transform="matrix(0.08641975308641976,0,0,0.08641975308641976,32.839506172839506,0)" xlink:href="#I"/><use transform="matrix(0.08641975308641976,0,0,0.08641975308641976,48.39506172839506,0)" xlink:href="#B"/><use transform="matrix(0.08641975308641976,0,0,0.08641975308641976,55.22222222222223,0)" xlink:href="#M"/><use transform="matrix(0.08641975308641976,0,0,0.08641975308641976,72.50617283950618,0)" xlink:href="#A"/><path fill="#8080ff" d="M-1.56 2.16h92.9v2.28h-92.9z"/></g><path fill="#333" d="M233-177c-1 41-23 64-60 70L243 0h-38l-65-103H63V0H30v-248c88 3 205-21 203 71zM63-129c60-2 137 13 137-47 0-61-80-42-137-45v92" id="N"/><path fill="#333" d="M177-190C167-65 218 103 67 71c-23-6-38-20-44-43l32-5c15 47 100 32 89-28v-30C133-14 115 1 83 1 29 1 15-40 15-95c0-56 16-97 71-98 29-1 48 16 59 35 1-10 0-23 2-32h30zM94-22c36 0 50-32 50-73 0-42-14-75-50-75-39 0-46 34-46 75s6 73 46 73" id="O"/><g id="i"><use transform="matrix(0.08641975308641976,0,0,0.08641975308641976,0,0)" xlink:href="#N"/><use transform="matrix(0.08641975308641976,0,0,0.08641975308641976,22.38271604938272,0)" xlink:href="#K"/><use transform="matrix(0.08641975308641976,0,0,0.08641975308641976,39.66666666666667,0)" xlink:href="#O"/><use transform="matrix(0.08641975308641976,0,0,0.08641975308641976,56.95061728395062,0)" xlink:href="#B"/><use transform="matrix(0.08641975308641976,0,0,0.08641975308641976,63.777777777777786,0)" xlink:href="#I"/><use transform="matrix(0.08641975308641976,0,0,0.08641975308641976,79.33333333333334,0)" xlink:href="#H"/><use transform="matrix(0.08641975308641976,0,0,0.08641975308641976,87.97530864197532,0)" xlink:href="#E"/><use transform="matrix(0.08641975308641976,0,0,0.08641975308641976,98.25925925925927,0)" xlink:href="#t"/><use transform="matrix(0.08641975308641976,0,0,0.08641975308641976,115.54320987654322,0)" xlink:href="#E"/></g><g id="j"><use transform="matrix(0.08641975308641976,0,0,0.08641975308641976,0,0)" xlink:href="#J"/><use transform="matrix(0.08641975308641976,0,0,0.08641975308641976,24.19753086419753,0)" xlink:href="#E"/><use transform="matrix(0.08641975308641976,0,0,0.08641975308641976,34.48148148148148,0)" xlink:href="#F"/><use transform="matrix(0.08641975308641976,0,0,0.08641975308641976,51.76543209876543,0)" xlink:href="#K"/><use transform="matrix(0.08641975308641976,0,0,0.08641975308641976,69.04938271604938,0)" xlink:href="#A"/></g><path fill="#333" d="M30 0v-248h187v28H63v79h144v27H63v87h162V0H30" id="P"/><g id="k"><use transform="matrix(0.08641975308641976,0,0,0.08641975308641976,0,0)" xlink:href="#P"/><use transform="matrix(0.08641975308641976,0,0,0.08641975308641976,20.740740740740744,0)" xlink:href="#F"/><use transform="matrix(0.08641975308641976,0,0,0.08641975308641976,38.0246913580247,0)" xlink:href="#B"/><use transform="matrix(0.08641975308641976,0,0,0.08641975308641976,44.85185185185187,0)" xlink:href="#H"/><use transform="matrix(0.08641975308641976,0,0,0.08641975308641976,53.49382716049383,0)" xlink:href="#t"/><use transform="matrix(0.08641975308641976,0,0,0.08641975308641976,70.77777777777779,0)" xlink:href="#E"/></g><path fill="#333" d="M137 0h-34L2-248h35l83 218 83-218h36" id="Q"/><g id="l"><use transform="matrix(0.08641975308641976,0,0,0.08641975308641976,0,0)" xlink:href="#Q"/><use transform="matrix(0.08641975308641976,0,0,0.08641975308641976,19.01234567901235,0)" xlink:href="#K"/><use transform="matrix(0.08641975308641976,0,0,0.08641975308641976,36.296296296296305,0)" xlink:href="#E"/></g><g id="m"><use transform="matrix(0.08641975308641976,0,0,0.08641975308641976,0,0)" xlink:href="#u"/><use transform="matrix(0.08641975308641976,0,0,0.08641975308641976,17.283950617283953,0)" xlink:href="#E"/><use transform="matrix(0.08641975308641976,0,0,0.08641975308641976,27.567901234567906,0)" xlink:href="#y"/><use transform="matrix(0.08641975308641976,0,0,0.08641975308641976,44.85185185185187,0)" xlink:href="#F"/><use transform="matrix(0.08641975308641976,0,0,0.08641975308641976,62.13580246913581,0)" xlink:href="#G"/><use transform="matrix(0.08641975308641976,0,0,0.08641975308641976,79.41975308641976,0)" xlink:href="#C"/><use transform="matrix(0.08641975308641976,0,0,0.08641975308641976,94.97530864197532,0)" xlink:href="#H"/><use transform="matrix(0.08641975308641976,0,0,0.08641975308641976,103.61728395061729,0)" xlink:href="#y"/></g><path fill="#333" d="M190 0L58-211 59 0H30v-248h39L202-35l-2-213h31V0h-41" id="R"/><g id="n"><use transform="matrix(0.08641975308641976,0,0,0.08641975308641976,0,0)" xlink:href="#R"/><use transform="matrix(0.08641975308641976,0,0,0.08641975308641976,22.38271604938272,0)" xlink:href="#G"/><use transform="matrix(0.08641975308641976,0,0,0.08641975308641976,39.66666666666667,0)" xlink:href="#K"/><use transform="matrix(0.08641975308641976,0,0,0.08641975308641976,56.95061728395062,0)" xlink:href="#I"/><use transform="matrix(0.08641975308641976,0,0,0.08641975308641976,72.50617283950618,0)" xlink:href="#H"/><use transform="matrix(0.08641975308641976,0,0,0.08641975308641976,81.14814814814815,0)" xlink:href="#E"/><use transform="matrix(0.08641975308641976,0,0,0.08641975308641976,91.4320987654321,0)" xlink:href="#y"/><use transform="matrix(0.08641975308641976,0,0,0.08641975308641976,108.71604938271604,0)" xlink:href="#I"/></g><path fill="#333" d="M24 0v-261h32V0H24" id="S"/><g id="o"><use transform="matrix(0.08641975308641976,0,0,0.08641975308641976,0,0)" xlink:href="#t"/><use transform="matrix(0.08641975308641976,0,0,0.08641975308641976,17.283950617283953,0)" xlink:href="#S"/><use transform="matrix(0.08641975308641976,0,0,0.08641975308641976,24.111111111111114,0)" xlink:href="#B"/><use transform="matrix(0.08641975308641976,0,0,0.08641975308641976,30.938271604938276,0)" xlink:href="#t"/><use transform="matrix(0.08641975308641976,0,0,0.08641975308641976,48.22222222222223,0)" xlink:href="#F"/><use transform="matrix(0.08641975308641976,0,0,0.08641975308641976,65.50617283950618,0)" xlink:href="#y"/><use transform="matrix(0.08641975308641976,0,0,0.08641975308641976,82.79012345679013,0)" xlink:href="#I"/></g><g id="p"><use transform="matrix(0.08641975308641976,0,0,0.08641975308641976,0,0)" xlink:href="#z"/><use transform="matrix(0.08641975308641976,0,0,0.08641975308641976,8.641975308641976,0)" xlink:href="#A"/><use transform="matrix(0.08641975308641976,0,0,0.08641975308641976,25.925925925925927,0)" xlink:href="#B"/><use transform="matrix(0.08641975308641976,0,0,0.08641975308641976,32.75308641975309,0)" xlink:href="#C"/><use transform="matrix(0.08641975308641976,0,0,0.08641975308641976,48.308641975308646,0)" xlink:href="#B"/><use transform="matrix(0.08641975308641976,0,0,0.08641975308641976,55.13580246913581,0)" xlink:href="#t"/><use transform="matrix(0.08641975308641976,0,0,0.08641975308641976,72.41975308641976,0)" xlink:href="#E"/></g><g id="q"><use transform="matrix(0.08641975308641976,0,0,0.08641975308641976,0,0)" xlink:href="#I"/><use transform="matrix(0.08641975308641976,0,0,0.08641975308641976,15.555555555555557,0)" xlink:href="#K"/><use transform="matrix(0.08641975308641976,0,0,0.08641975308641976,32.839506172839506,0)" xlink:href="#I"/><use transform="matrix(0.08641975308641976,0,0,0.08641975308641976,48.39506172839506,0)" xlink:href="#B"/><use transform="matrix(0.08641975308641976,0,0,0.08641975308641976,55.22222222222223,0)" xlink:href="#M"/><use transform="matrix(0.08641975308641976,0,0,0.08641975308641976,72.50617283950618,0)" xlink:href="#A"/></g><g id="r"><use transform="matrix(0.08641975308641976,0,0,0.08641975308641976,0,0)" xlink:href="#N"/><use transform="matrix(0.08641975308641976,0,0,0.08641975308641976,22.38271604938272,0)" xlink:href="#K"/><use transform="matrix(0.08641975308641976,0,0,0.08641975308641976,39.66666666666667,0)" xlink:href="#O"/><use transform="matrix(0.08641975308641976,0,0,0.08641975308641976,56.95061728395062,0)" xlink:href="#B"/><use transform="matrix(0.08641975308641976,0,0,0.08641975308641976,63.777777777777786,0)" xlink:href="#I"/><use transform="matrix(0.08641975308641976,0,0,0.08641975308641976,79.33333333333334,0)" xlink:href="#H"/><use transform="matrix(0.08641975308641976,0,0,0.08641975308641976,87.97530864197532,0)" xlink:href="#E"/><use transform="matrix(0.08641975308641976,0,0,0.08641975308641976,98.25925925925927,0)" xlink:href="#t"/><use transform="matrix(0.08641975308641976,0,0,0.08641975308641976,115.54320987654322,0)" xlink:href="#E"/><use transform="matrix(0.08641975308641976,0,0,0.08641975308641976,125.82716049382718,0)" xlink:href="#I"/><use transform="matrix(0.08641975308641976,0,0,0.08641975308641976,141.38271604938274,0)" xlink:href="#K"/></g></defs></g></svg>